<?xml version="1.0" encoding="UTF-8" standalone="no"?>
<svg xmlns:dc="http://purl.org/dc/elements/1.1/" 
   xmlns:cc="http://creativecommons.org/ns#" 
   xmlns:rdf="http://www.w3.org/1999/02/22-rdf-syntax-ns#" 
   xmlns:svg="http://www.w3.org/2000/svg" 
   xmlns="http://www.w3.org/2000/svg" id="svg1861" version="1.1" viewBox="0 0 100 100" height="100" width="100">
   <metadata id="metadata1867">
      <rdf:RDF>
         <cc:Work rdf:about="">
            <dc:format>image/svg+xml</dc:format>
            <dc:type rdf:resource="http://purl.org/dc/dcmitype/StillImage" />
            <dc:title></dc:title>
         </cc:Work>
      </rdf:RDF>
   </metadata>
   <defs id="defs1865">
      <style type="text/css" id="style1831">
	.st0{fill:none;}
	.st1{fill:none;stroke:#23843e;stroke-width:10;stroke-miterlimit:10;}
	.st2{fill:none;stroke:#23843e;stroke-width:10;stroke-linejoin:round;stroke-miterlimit:10;}
      </style>
   </defs>
   <g style="stroke-width:1.03228116" transform="matrix(0.96872837,0,0,0.96872837,1.2301318,1.8864308)" id="g2487">
      <rect x="14.708117" y="11.742016" class="st0" width="73.296608" height="73.296608" id="rect1833" style="fill:none;stroke-width:1.03228104" />
      <path style="fill:#23843e;stroke-width:1.03228104" id="path1837" d="m 68.544692,60.606423 c -6.772436,0 -12.173239,-5.48653 -12.173239,-12.173239 0,-6.772435 5.48653,-12.173238 12.173239,-12.173238 6.686708,0 12.173238,5.48653 12.173238,12.173238 0.08573,6.686709 -5.400803,12.173239 -12.173238,12.173239 z m 0,-16.288136 c -2.228903,0 -4.114898,1.800268 -4.114898,4.114897 0,2.31463 1.800268,4.114898 4.114898,4.114898 2.314629,0 4.114897,-1.800268 4.114897,-4.114898 0,-2.314629 -1.885995,-4.114897 -4.114897,-4.114897 z" />
      <path style="fill:#23843e;stroke-width:1.03228104" id="path1839" d="M 87.919,52.376628 H 76.688759 c -2.228902,0 -4.114897,-1.800268 -4.114897,-4.114898 0,-2.228902 1.800268,-4.114897 4.114897,-4.114897 H 87.919 c 2.228903,0 4.114898,1.800268 4.114898,4.114897 0,2.31463 -1.800268,4.114898 -4.114898,4.114898 z" />
      <path style="fill:#23843e;stroke-width:1.03228104" id="path1841" d="M 60.400624,52.376628 H 14.708117 c -2.228902,0 -4.114897,-1.800268 -4.114897,-4.114898 0,-2.228902 1.800268,-4.114897 4.114897,-4.114897 h 45.778234 c 2.228903,0 4.114897,1.800268 4.114897,4.114897 -0.08573,2.31463 -1.971721,4.114898 -4.200624,4.114898 z" />
      <path style="fill:#23843e;stroke-width:1.03228104" id="path1843" d="m 44.112488,32.059322 c -6.772435,0 -12.258965,-5.48653 -12.258965,-12.173238 0,-6.686709 5.572257,-12.2589654 12.258965,-12.2589654 6.686709,0 12.173238,5.4865294 12.173238,12.1732384 0,6.686708 -5.400802,12.258965 -12.173238,12.258965 z m 0,-16.288136 c -2.228902,0 -4.114897,1.800268 -4.114897,4.114898 0,2.31463 1.800268,4.114897 4.114897,4.114897 2.228903,0 4.114898,-1.800267 4.114898,-4.114897 0,-2.31463 -1.885995,-4.114898 -4.114898,-4.114898 z" />
      <path style="fill:#23843e;stroke-width:1.03228104" id="path1845" d="M 87.919,23.915254 H 52.256556 c -2.228903,0 -4.114897,-1.800267 -4.114897,-4.114897 0,-2.31463 1.800267,-4.114898 4.114897,-4.114898 H 87.919 c 2.228903,0 4.114898,1.800268 4.114898,4.114898 0,2.31463 -1.800268,4.114897 -4.114898,4.114897 z" />
      <path style="fill:#23843e;stroke-width:1.03228104" id="path1847" d="M 35.968421,23.915254 H 14.708117 c -2.314629,0 -4.114897,-1.800267 -4.114897,-4.114897 0,-2.31463 1.800268,-4.114898 4.114897,-4.114898 h 21.346031 c 2.228902,0 4.114897,1.800268 4.114897,4.114898 0,2.31463 -1.971722,4.114897 -4.200624,4.114897 z" />
      <path style="fill:#23843e;stroke-width:1.03228104" id="path1849" d="m 27.824353,89.067796 c -6.772435,0 -12.173238,-5.48653 -12.173238,-12.173238 0,-6.686708 5.48653,-12.173238 12.173238,-12.173238 6.686708,0 12.258965,5.48653 12.258965,12.173238 0,6.686708 -5.48653,12.173238 -12.258965,12.173238 z m 0,-16.288135 c -2.228903,0 -4.029171,1.800267 -4.029171,4.114897 0,2.31463 1.800268,4.114897 4.029171,4.114897 2.228903,0 4.114897,-1.800267 4.114897,-4.114897 0,-2.31463 -1.885994,-4.114897 -4.114897,-4.114897 z" />
      <path style="fill:#23843e;stroke-width:1.03228104" id="path1851" d="M 87.919,80.923728 H 35.968421 c -2.228903,0 -4.029171,-1.800267 -4.029171,-4.114897 0,-2.31463 1.800268,-4.02917 4.029171,-4.02917 H 87.919 c 2.228903,0 4.114898,1.800267 4.114898,4.114897 0,2.31463 -1.800268,4.02917 -4.114898,4.02917 z" />
      <path style="fill:#23843e;stroke-width:1.03228104" id="path1853" d="m 19.680285,80.923728 h -4.972168 c -2.228902,0 -4.114897,-1.800267 -4.114897,-4.114897 0,-2.31463 1.800268,-4.02917 4.114897,-4.02917 h 5.057895 c 2.228903,0 4.114897,1.800267 4.114897,4.114897 0,2.31463 -1.971721,4.02917 -4.200624,4.02917 z" />
   </g>
</svg>
